<svg width="19" height="18" viewBox="0 0 19 18" fill="none" xmlns="http://www.w3.org/2000/svg">
<path d="M2.375 18C1.72187 18 1.16296 17.7739 0.698249 17.3216C0.233541 16.8693 0.000791666 16.325 0 15.6886V13.3772C0 13.0498 0.114 12.7755 0.342 12.5544C0.57 12.3332 0.851833 12.2223 1.1875 12.2215C1.52317 12.2207 1.80539 12.3317 2.03419 12.5544C2.26298 12.777 2.37658 13.0513 2.375 13.3772V15.6886H16.625V13.3772C16.625 13.0498 16.739 12.7755 16.967 12.5544C17.195 12.3332 17.4768 12.2223 17.8125 12.2215C18.1482 12.2207 18.4304 12.3317 18.6592 12.5544C18.888 12.777 19.0016 13.0513 19 13.3772V15.6886C19 16.3242 18.7676 16.8686 18.3029 17.3216C17.8382 17.7746 17.2789 18.0008 16.625 18H2.375ZM8.31249 3.95828L6.08593 6.12521C5.84843 6.35635 5.5666 6.4673 5.24043 6.45805C4.91427 6.44881 4.63204 6.32823 4.39375 6.09632C4.17604 5.86518 4.06204 5.59552 4.05175 5.28733C4.04145 4.97915 4.15545 4.70948 4.39375 4.47834L8.66874 0.317834C8.78749 0.202264 8.91614 0.120595 9.05468 0.0728264C9.19322 0.0250576 9.34166 0.000788245 9.49999 1.77802e-05C9.65833 -0.000752685 9.80676 0.0235166 9.9453 0.0728264C10.0838 0.122136 10.2125 0.203805 10.3312 0.317834L14.6062 4.47834C14.8437 4.70948 14.9577 4.97915 14.9482 5.28733C14.9387 5.59552 14.8247 5.86518 14.6062 6.09632C14.3687 6.32746 14.0869 6.44804 13.7607 6.45805C13.4346 6.46807 13.1523 6.35712 12.9141 6.12521L10.6875 3.95828V12.2215C10.6875 12.549 10.5735 12.8236 10.3455 13.0455C10.1175 13.2674 9.83566 13.378 9.49999 13.3772C9.16433 13.3764 8.88249 13.2655 8.65449 13.0444C8.42649 12.8232 8.31249 12.549 8.31249 12.2215V3.95828Z" fill="black"/>
</svg>
