<svg width="22" height="16" viewBox="0 0 22 16" fill="none" xmlns="http://www.w3.org/2000/svg">
<path d="M20.75 7.67308C20.75 9.98077 16.2731 14.5962 10.75 14.5962C5.22692 14.5962 0.75 9.98077 0.75 7.67308C0.75 5.36538 5.22692 0.75 10.75 0.75C16.2731 0.75 20.75 5.36538 20.75 7.67308Z" stroke="#D1D9E0" stroke-width="1.5" stroke-linejoin="round"/>
<path d="M14.5961 7.6733C14.5961 8.69337 14.1909 9.67165 13.4696 10.3929C12.7483 11.1142 11.77 11.5195 10.75 11.5195C9.7299 11.5195 8.75161 11.1142 8.03032 10.3929C7.30903 9.67165 6.90381 8.69337 6.90381 7.6733C6.90381 6.65324 7.30903 5.67495 8.03032 4.95366C8.75161 4.23237 9.7299 3.82715 10.75 3.82715C11.77 3.82715 12.7483 4.23237 13.4696 4.95366C14.1909 5.67495 14.5961 6.65324 14.5961 7.6733Z" stroke="#D1D9E0" stroke-width="1.5" stroke-linejoin="round"/>
</svg>
